# xmcd
# 
# Track frame offsets:
#	150
#	10927
#	22579
#	35620
#	47443
#	69751
#	80039
#	93902
#	105184
#	118782
#	129716
#	142851
#
# Disc length: 2071 seconds
#
# Revision: 1
# Processed by: cddbd v1.4PL0 Copyright (c) Steve Scherf et al.
# Submitted via: Audio-CD-Archiv 2.10.438
#
DISCID=8708150c
DTITLE=Various Artist - Country Star Festival CD3
DYEAR=1900
DGENRE=country
TTITLE0=Charlie's Shoes - Bolly Walker
TTITLE1=Cowhand Blues - Danny Gibson
TTITLE2=Slow Hand - Rodney Thompson
TTITLE3=Help Me Make It Through The Night - Sammi Smith
TTITLE4=Red Light Lady Love - Barbara Nichols
TTITLE5=Blues Train - Johnny Cash
TTITLE6=The Pool Shark - Dave Dudley
TTITLE7=Funny face - Donna Fargo
TTITLE8=Another Sleepless Night - Shelly Jones
TTITLE9=Wilderness Road - Jack Fender
TTITLE10=All That Country Lovin' Barbara Nichols
TTITLE11=Sheriff Of Boone County
EXTD=
EXTT0=
EXTT1=
EXTT2=
EXTT3=
EXTT4=
EXTT5=
EXTT6=
EXTT7=
EXTT8=
EXTT9=
EXTT10=
EXTT11=
PLAYORDER=
